<?xml version="1.0" encoding="UTF-8" standalone="no"?>
<svg width="516px" height="88px" viewBox="0 0 516 88" version="1.1" xmlns="http://www.w3.org/2000/svg" xmlns:xlink="http://www.w3.org/1999/xlink">
    <!-- Generator: Sketch 40 (33762) - http://www.bohemiancoding.com/sketch -->
    <title>Sleepless</title>
    <desc>Created with Sketch.</desc>
    <defs></defs>
    <g id="Page-1" stroke="none" stroke-width="1" fill="none" fill-rule="evenodd">
        <path d="M11.302,74.212 C12.4593391,74.4600012 13.6993267,74.6666658 15.022,74.832 C16.1793391,74.9973342 17.3986603,75.1419994 18.68,75.266 C19.9613397,75.3900006 21.2633267,75.452 22.586,75.452 C24.9006782,75.452 27.1533224,75.183336 29.344,74.646 C31.5346776,74.108664 33.4979913,73.2200062 35.234,71.98 C36.9700087,70.7399938 38.3546615,69.1486764 39.388,67.206 C40.4213385,65.2633236 40.938,62.8866807 40.938,60.076 C40.938,57.6786547 40.3386727,55.4053441 39.14,53.256 C37.9413273,51.1066559 36.4120093,49.0400099 34.552,47.056 C32.6919907,45.0719901 30.7080105,43.1706758 28.6,41.352 C26.4919895,39.5333242 24.5080093,37.6940093 22.648,35.834 C20.7879907,33.9739907 19.2586727,32.1140093 18.06,30.254 C16.8613273,28.3939907 16.262,26.4720099 16.262,24.488 C16.262,21.5119851 17.2126572,19.2180081 19.114,17.606 C21.0153428,15.9939919 24.0739789,15.188 28.29,15.188 C28.9513366,15.188 29.6333298,15.2086665 30.336,15.25 C31.0386702,15.2913335 31.7206634,15.3533329 32.382,15.436 C33.0433366,15.5186671 33.7046634,15.56 34.366,15.56 L34.366,12.336 C33.7873304,12.336 33.1673366,12.2946671 32.506,12.212 C31.9273304,12.1293329 31.2866702,12.0673335 30.584,12.026 C29.8813298,11.9846665 29.1580037,11.964 28.414,11.964 C23.9499777,11.964 20.2713478,12.9766565 17.378,15.002 C14.4846522,17.0273435 13.038,20.1893118 13.038,24.488 C13.038,26.8026782 13.6373273,28.9726565 14.836,30.998 C16.0346727,33.0233435 17.5639907,35.0073236 19.424,36.95 C21.2840093,38.8926764 23.2679895,40.7733242 25.376,42.592 C27.4840105,44.4106758 29.4679907,46.2499907 31.328,48.11 C33.1880093,49.9700093 34.7173273,51.8919901 35.916,53.876 C37.1146727,55.8600099 37.714,57.9266559 37.714,60.076 C37.714,64.0440198 36.3706801,67.061323 33.684,69.128 C30.9973199,71.194677 27.2980236,72.228 22.586,72.228 C19.7753193,72.228 17.2126782,72.0213354 14.898,71.608 C13.6579938,71.4426658 12.4593391,71.2360012 11.302,70.988 L11.302,74.212 Z M0.886,59.332 C2.70467576,59.9106696 4.60599008,60.3653317 6.59,60.696 C8.2433416,61.1093354 10.1239895,61.4399988 12.232,61.688 C14.3400105,61.9360012 16.4686559,62.06 18.618,62.06 C22.4206857,62.06 24.322,60.6546807 24.322,57.844 C24.322,56.769328 23.7433391,55.6740056 22.586,54.558 C21.4286609,53.4419944 19.9613422,52.2020068 18.184,50.838 C16.4066578,49.4739932 14.5053435,47.9653416 12.48,46.312 C10.4546565,44.6586584 8.55334222,42.7573441 6.776,40.608 C4.99865778,38.4586559 3.53133912,36.0406801 2.374,33.354 C1.21666088,30.6673199 0.638,27.5880174 0.638,24.116 C0.638,20.2306472 1.34065964,16.8000149 2.746,13.824 C4.15134036,10.8479851 6.0939876,8.36800992 8.574,6.384 C11.0540124,4.39999008 13.9679833,2.8913385 17.316,1.858 C20.6640167,0.8246615 24.2393143,0.308 28.042,0.308 C30.0260099,0.308 32.0099901,0.4113323 33.994,0.618 C35.9780099,0.8246677 37.7553255,1.01066584 39.326,1.176 C41.1446758,1.42400124 42.9219913,1.67199876 44.658,1.92 L44.658,25.108 C43.9966634,25.0253329 43.2526708,24.9426671 42.426,24.86 C41.7646634,24.7773329 41.0206708,24.6946671 40.194,24.612 C39.3673292,24.5293329 38.4993379,24.488 37.59,24.488 C37.0939975,24.488 36.4740037,24.5086665 35.73,24.55 C34.9859963,24.5913335 34.2833366,24.6946658 33.622,24.86 C32.9606634,25.0253342 32.3820025,25.3146646 31.886,25.728 C31.3899975,26.1413354 31.142,26.7199963 31.142,27.464 C31.142,28.1253366 31.6999944,28.951995 32.816,29.944 C33.9320056,30.936005 35.2959919,32.0933267 36.908,33.416 C38.5200081,34.7386733 40.2973236,36.2679913 42.24,38.004 C44.1826764,39.7400087 45.9599919,41.7239888 47.572,43.956 C49.1840081,46.1880112 50.5479944,48.7093193 51.664,51.52 C52.7800056,54.3306807 53.338,57.4719826 53.338,60.944 C53.338,64.5813515 52.7593391,67.9913174 51.602,71.174 C50.4446609,74.3566826 48.6466789,77.1259882 46.208,79.482 C43.7693211,81.8380118 40.6486857,83.6979932 36.846,85.062 C33.0433143,86.4260068 28.538026,87.108 23.33,87.108 C20.188651,87.108 17.2746801,86.9633348 14.588,86.674 C11.9013199,86.3846652 9.524677,86.0333354 7.458,85.62 C5.06065468,85.2066646 2.87000992,84.7106696 0.886,84.132 L0.886,59.332 Z M58.918,2.292 L86.446,2.292 L86.446,63.3 L109.262,63.3 L109.262,85 L58.918,85 L58.918,2.292 Z M102.318,75.08 L102.318,72.104 L74.542,72.104 L74.542,12.212 L71.318,12.212 L71.318,75.08 L102.318,75.08 Z M113.602,2.292 L162.334,2.292 L162.334,23.992 L140.014,23.992 L140.014,33.168 L161.962,33.168 L161.962,53.752 L140.014,53.752 L140.014,63.3 L163.202,63.3 L163.202,85 L113.602,85 L113.602,2.292 Z M154.026,75.08 L154.026,72.104 L129.226,72.104 L129.226,44.948 L152.786,44.948 L152.786,41.972 L129.226,41.972 L129.226,15.188 L154.026,15.188 L154.026,12.212 L126.002,12.212 L126.002,75.08 L154.026,75.08 Z M170.642,2.292 L219.374,2.292 L219.374,23.992 L197.054,23.992 L197.054,33.168 L219.002,33.168 L219.002,53.752 L197.054,53.752 L197.054,63.3 L220.242,63.3 L220.242,85 L170.642,85 L170.642,2.292 Z M211.066,75.08 L211.066,72.104 L186.266,72.104 L186.266,44.948 L209.826,44.948 L209.826,41.972 L186.266,41.972 L186.266,15.188 L211.066,15.188 L211.066,12.212 L183.042,12.212 L183.042,75.08 L211.066,75.08 Z M292.038,33.788 C292.038,39.4920285 291.04601,44.3486466 289.062,48.358 C287.07799,52.3673534 284.370684,55.6119876 280.94,58.092 C277.509316,60.5720124 273.500023,62.3906609 268.912,63.548 C264.323977,64.7053391 259.384693,65.284 254.094,65.284 L254.094,85 L227.682,85 L227.682,2.292 L254.094,2.292 C259.384693,2.292 264.323977,2.87066088 268.912,4.028 C273.500023,5.18533912 277.509316,7.0039876 280.94,9.484 C284.370684,11.9640124 287.07799,15.2086466 289.062,19.218 C291.04601,23.2273534 292.038,28.0839715 292.038,33.788 L292.038,33.788 Z M280.01,33.788 C280.01,30.0679814 279.36934,26.8440136 278.088,24.116 C276.80666,21.3879864 275.008678,19.1560087 272.694,17.42 C270.379322,15.6839913 267.630683,14.3820043 264.448,13.514 C261.265317,12.6459957 257.814019,12.212 254.094,12.212 L240.082,12.212 L240.082,75.08 L243.306,75.08 L243.306,55.364 L254.094,55.364 C257.814019,55.364 261.265317,54.9300043 264.448,54.062 C267.630683,53.1939957 270.379322,51.8920087 272.694,50.156 C275.008678,48.4199913 276.80666,46.1880136 278.088,43.46 C279.36934,40.7319864 280.01,37.5080186 280.01,33.788 L280.01,33.788 Z M276.538,33.788 C276.538,37.3426844 275.918006,40.3186547 274.678,42.716 C273.437994,45.1133453 271.784677,47.0146596 269.718,48.42 C267.651323,49.8253404 265.27468,50.8379969 262.588,51.458 C259.90132,52.0780031 257.070015,52.388 254.094,52.388 L243.306,52.388 L243.306,15.188 L254.094,15.188 C257.070015,15.188 259.90132,15.4979969 262.588,16.118 C265.27468,16.7380031 267.651323,17.7506596 269.718,19.156 C271.784677,20.5613404 273.437994,22.4626547 274.678,24.86 C275.918006,27.2573453 276.538,30.2333156 276.538,33.788 L276.538,33.788 Z M254.094,42.964 L255.21,42.964 C258.682017,42.964 261.182659,42.1580081 262.712,40.546 C264.241341,38.9339919 265.006,36.6813478 265.006,33.788 C265.006,30.8946522 264.241341,28.6420081 262.712,27.03 C261.182659,25.4179919 258.682017,24.612 255.21,24.612 L254.094,24.612 L254.094,42.964 Z M298.238,2.292 L325.766,2.292 L325.766,63.3 L348.582,63.3 L348.582,85 L298.238,85 L298.238,2.292 Z M341.638,75.08 L341.638,72.104 L313.862,72.104 L313.862,12.212 L310.638,12.212 L310.638,75.08 L341.638,75.08 Z M352.922,2.292 L401.654,2.292 L401.654,23.992 L379.334,23.992 L379.334,33.168 L401.282,33.168 L401.282,53.752 L379.334,53.752 L379.334,63.3 L402.522,63.3 L402.522,85 L352.922,85 L352.922,2.292 Z M393.346,75.08 L393.346,72.104 L368.546,72.104 L368.546,44.948 L392.106,44.948 L392.106,41.972 L368.546,41.972 L368.546,15.188 L393.346,15.188 L393.346,12.212 L365.322,12.212 L365.322,75.08 L393.346,75.08 Z M418.146,74.212 C419.303339,74.4600012 420.543327,74.6666658 421.866,74.832 C423.023339,74.9973342 424.24266,75.1419994 425.524,75.266 C426.80534,75.3900006 428.107327,75.452 429.43,75.452 C431.744678,75.452 433.997322,75.183336 436.188,74.646 C438.378678,74.108664 440.341991,73.2200062 442.078,71.98 C443.814009,70.7399938 445.198661,69.1486764 446.232,67.206 C447.265338,65.2633236 447.782,62.8866807 447.782,60.076 C447.782,57.6786547 447.182673,55.4053441 445.984,53.256 C444.785327,51.1066559 443.256009,49.0400099 441.396,47.056 C439.535991,45.0719901 437.552011,43.1706758 435.444,41.352 C433.335989,39.5333242 431.352009,37.6940093 429.492,35.834 C427.631991,33.9739907 426.102673,32.1140093 424.904,30.254 C423.705327,28.3939907 423.106,26.4720099 423.106,24.488 C423.106,21.5119851 424.056657,19.2180081 425.958,17.606 C427.859343,15.9939919 430.917979,15.188 435.134,15.188 C435.795337,15.188 436.47733,15.2086665 437.18,15.25 C437.88267,15.2913335 438.564663,15.3533329 439.226,15.436 C439.887337,15.5186671 440.548663,15.56 441.21,15.56 L441.21,12.336 C440.63133,12.336 440.011337,12.2946671 439.35,12.212 C438.77133,12.1293329 438.13067,12.0673335 437.428,12.026 C436.72533,11.9846665 436.002004,11.964 435.258,11.964 C430.793978,11.964 427.115348,12.9766565 424.222,15.002 C421.328652,17.0273435 419.882,20.1893118 419.882,24.488 C419.882,26.8026782 420.481327,28.9726565 421.68,30.998 C422.878673,33.0233435 424.407991,35.0073236 426.268,36.95 C428.128009,38.8926764 430.111989,40.7733242 432.22,42.592 C434.328011,44.4106758 436.311991,46.2499907 438.172,48.11 C440.032009,49.9700093 441.561327,51.8919901 442.76,53.876 C443.958673,55.8600099 444.558,57.9266559 444.558,60.076 C444.558,64.0440198 443.21468,67.061323 440.528,69.128 C437.84132,71.194677 434.142024,72.228 429.43,72.228 C426.619319,72.228 424.056678,72.0213354 421.742,71.608 C420.501994,71.4426658 419.303339,71.2360012 418.146,70.988 L418.146,74.212 Z M407.73,59.332 C409.548676,59.9106696 411.44999,60.3653317 413.434,60.696 C415.087342,61.1093354 416.967989,61.4399988 419.076,61.688 C421.184011,61.9360012 423.312656,62.06 425.462,62.06 C429.264686,62.06 431.166,60.6546807 431.166,57.844 C431.166,56.769328 430.587339,55.6740056 429.43,54.558 C428.272661,53.4419944 426.805342,52.2020068 425.028,50.838 C423.250658,49.4739932 421.349343,47.9653416 419.324,46.312 C417.298657,44.6586584 415.397342,42.7573441 413.62,40.608 C411.842658,38.4586559 410.375339,36.0406801 409.218,33.354 C408.060661,30.6673199 407.482,27.5880174 407.482,24.116 C407.482,20.2306472 408.18466,16.8000149 409.59,13.824 C410.99534,10.8479851 412.937988,8.36800992 415.418,6.384 C417.898012,4.39999008 420.811983,2.8913385 424.16,1.858 C427.508017,0.8246615 431.083314,0.308 434.886,0.308 C436.87001,0.308 438.85399,0.4113323 440.838,0.618 C442.82201,0.8246677 444.599325,1.01066584 446.17,1.176 C447.988676,1.42400124 449.765991,1.67199876 451.502,1.92 L451.502,25.108 C450.840663,25.0253329 450.096671,24.9426671 449.27,24.86 C448.608663,24.7773329 447.864671,24.6946671 447.038,24.612 C446.211329,24.5293329 445.343338,24.488 444.434,24.488 C443.937998,24.488 443.318004,24.5086665 442.574,24.55 C441.829996,24.5913335 441.127337,24.6946658 440.466,24.86 C439.804663,25.0253342 439.226002,25.3146646 438.73,25.728 C438.233998,26.1413354 437.986,26.7199963 437.986,27.464 C437.986,28.1253366 438.543994,28.951995 439.66,29.944 C440.776006,30.936005 442.139992,32.0933267 443.752,33.416 C445.364008,34.7386733 447.141324,36.2679913 449.084,38.004 C451.026676,39.7400087 452.803992,41.7239888 454.416,43.956 C456.028008,46.1880112 457.391994,48.7093193 458.508,51.52 C459.624006,54.3306807 460.182,57.4719826 460.182,60.944 C460.182,64.5813515 459.603339,67.9913174 458.446,71.174 C457.288661,74.3566826 455.490679,77.1259882 453.052,79.482 C450.613321,81.8380118 447.492686,83.6979932 443.69,85.062 C439.887314,86.4260068 435.382026,87.108 430.174,87.108 C427.032651,87.108 424.11868,86.9633348 421.432,86.674 C418.74532,86.3846652 416.368677,86.0333354 414.302,85.62 C411.904655,85.2066646 409.71401,84.7106696 407.73,84.132 L407.73,59.332 Z M473.946,74.212 C475.103339,74.4600012 476.343327,74.6666658 477.666,74.832 C478.823339,74.9973342 480.04266,75.1419994 481.324,75.266 C482.60534,75.3900006 483.907327,75.452 485.23,75.452 C487.544678,75.452 489.797322,75.183336 491.988,74.646 C494.178678,74.108664 496.141991,73.2200062 497.878,71.98 C499.614009,70.7399938 500.998662,69.1486764 502.032,67.206 C503.065339,65.2633236 503.582,62.8866807 503.582,60.076 C503.582,57.6786547 502.982673,55.4053441 501.784,53.256 C500.585327,51.1066559 499.056009,49.0400099 497.196,47.056 C495.335991,45.0719901 493.352011,43.1706758 491.244,41.352 C489.135989,39.5333242 487.152009,37.6940093 485.292,35.834 C483.431991,33.9739907 481.902673,32.1140093 480.704,30.254 C479.505327,28.3939907 478.906,26.4720099 478.906,24.488 C478.906,21.5119851 479.856657,19.2180081 481.758,17.606 C483.659343,15.9939919 486.717979,15.188 490.934,15.188 C491.595337,15.188 492.27733,15.2086665 492.98,15.25 C493.68267,15.2913335 494.364663,15.3533329 495.026,15.436 C495.687337,15.5186671 496.348663,15.56 497.01,15.56 L497.01,12.336 C496.43133,12.336 495.811337,12.2946671 495.15,12.212 C494.57133,12.1293329 493.93067,12.0673335 493.228,12.026 C492.52533,11.9846665 491.802004,11.964 491.058,11.964 C486.593978,11.964 482.915348,12.9766565 480.022,15.002 C477.128652,17.0273435 475.682,20.1893118 475.682,24.488 C475.682,26.8026782 476.281327,28.9726565 477.48,30.998 C478.678673,33.0233435 480.207991,35.0073236 482.068,36.95 C483.928009,38.8926764 485.911989,40.7733242 488.02,42.592 C490.128011,44.4106758 492.111991,46.2499907 493.972,48.11 C495.832009,49.9700093 497.361327,51.8919901 498.56,53.876 C499.758673,55.8600099 500.358,57.9266559 500.358,60.076 C500.358,64.0440198 499.01468,67.061323 496.328,69.128 C493.64132,71.194677 489.942024,72.228 485.23,72.228 C482.419319,72.228 479.856678,72.0213354 477.542,71.608 C476.301994,71.4426658 475.103339,71.2360012 473.946,70.988 L473.946,74.212 Z M463.53,59.332 C465.348676,59.9106696 467.24999,60.3653317 469.234,60.696 C470.887342,61.1093354 472.767989,61.4399988 474.876,61.688 C476.984011,61.9360012 479.112656,62.06 481.262,62.06 C485.064686,62.06 486.966,60.6546807 486.966,57.844 C486.966,56.769328 486.387339,55.6740056 485.23,54.558 C484.072661,53.4419944 482.605342,52.2020068 480.828,50.838 C479.050658,49.4739932 477.149343,47.9653416 475.124,46.312 C473.098657,44.6586584 471.197342,42.7573441 469.42,40.608 C467.642658,38.4586559 466.175339,36.0406801 465.018,33.354 C463.860661,30.6673199 463.282,27.5880174 463.282,24.116 C463.282,20.2306472 463.98466,16.8000149 465.39,13.824 C466.79534,10.8479851 468.737988,8.36800992 471.218,6.384 C473.698012,4.39999008 476.611983,2.8913385 479.96,1.858 C483.308017,0.8246615 486.883314,0.308 490.686,0.308 C492.67001,0.308 494.65399,0.4113323 496.638,0.618 C498.62201,0.8246677 500.399325,1.01066584 501.97,1.176 C503.788676,1.42400124 505.565991,1.67199876 507.302,1.92 L507.302,25.108 C506.640663,25.0253329 505.896671,24.9426671 505.07,24.86 C504.408663,24.7773329 503.664671,24.6946671 502.838,24.612 C502.011329,24.5293329 501.143338,24.488 500.234,24.488 C499.737998,24.488 499.118004,24.5086665 498.374,24.55 C497.629996,24.5913335 496.927337,24.6946658 496.266,24.86 C495.604663,25.0253342 495.026002,25.3146646 494.53,25.728 C494.033998,26.1413354 493.786,26.7199963 493.786,27.464 C493.786,28.1253366 494.343994,28.951995 495.46,29.944 C496.576006,30.936005 497.939992,32.0933267 499.552,33.416 C501.164008,34.7386733 502.941324,36.2679913 504.884,38.004 C506.826676,39.7400087 508.603992,41.7239888 510.216,43.956 C511.828008,46.1880112 513.191994,48.7093193 514.308,51.52 C515.424006,54.3306807 515.982,57.4719826 515.982,60.944 C515.982,64.5813515 515.403339,67.9913174 514.246,71.174 C513.088661,74.3566826 511.290679,77.1259882 508.852,79.482 C506.413321,81.8380118 503.292686,83.6979932 499.49,85.062 C495.687314,86.4260068 491.182026,87.108 485.974,87.108 C482.832651,87.108 479.91868,86.9633348 477.232,86.674 C474.54532,86.3846652 472.168677,86.0333354 470.102,85.62 C467.704655,85.2066646 465.51401,84.7106696 463.53,84.132 L463.53,59.332 Z" id="Sleepless" fill="#FFFFFF"></path>
    </g>
</svg>